<svg width="522" height="522" viewBox="0 0 522 522" fill="none" xmlns="http://www.w3.org/2000/svg">
<path d="M264.947 10.0017C276.237 9.88066 286.621 16.3982 291.764 26.8321C291.764 26.8321 381.005 150.025 423.37 235.974C465.735 321.922 508.731 467.002 508.731 467.002C513.455 476.586 513.036 488.031 507.625 497.215C502.215 506.399 492.591 512 482.221 512H19.9347C15.8266 512 13.4326 507.292 15.7851 503.924C20.0436 497.828 25.7058 489.382 29.3629 482.597C32.401 476.96 35.6459 469.518 38.2421 463.185C41.4257 455.419 48.9058 450.17 57.2989 450.17H408.2C421.122 450.17 430.6 438.163 427.288 425.672C416.608 385.393 393.57 305.374 368.774 262.472C346.972 224.75 310.904 172.861 287.795 140.436C278.525 127.428 258.631 130.247 253.109 145.235C237.008 188.942 210.494 259.933 202.15 276.457C195.763 289.105 186.573 303.563 177.931 316.249C168.568 329.995 178.207 349.329 194.839 349.329H200.45C206.461 349.329 212.206 346.661 215.695 341.767C224.025 330.081 232.484 315.136 239.02 300.012C244.87 286.472 246.819 278.666 250.364 267.625C253.91 256.584 254.312 237.14 265.963 239.654C316.482 250.551 394 411.158 317.014 411.158C317.014 411.158 252.486 408.95 211.367 408.95C170.248 408.95 106.429 411.158 106.429 411.158C96.1686 411.158 86.6305 405.675 81.1866 396.645C75.7427 387.616 75.1596 376.313 79.6439 366.733C79.6439 366.733 127.886 294.135 158.898 227.877C189.911 161.619 238.469 27.4042 238.469 27.4042C243.403 16.8619 253.657 10.1228 264.947 10.0017Z" fill="#76B39D"/>
</svg>
