<svg width="512" height="512" viewBox="0 0 512 512" fill="none" xmlns="http://www.w3.org/2000/svg">
<g filter="url(#filter0_i_227_64)">
<path d="M112.75 348.25C102.583 348.25 92.8333 346.417 83.5 342.75C74.1667 339.083 65.75 333.667 58.25 326.5C50.9167 319.167 45.0833 310.083 40.75 299.25C36.4167 288.417 34.25 275.75 34.25 261.25C34.25 247.083 36.4167 234.583 40.75 223.75C45.0833 212.917 50.9167 203.833 58.25 196.5C65.75 189.167 74.1667 183.667 83.5 180C93 176.167 102.75 174.25 112.75 174.25C122.75 174.25 132.417 176.083 141.75 179.75C151.25 183.417 159.667 188.917 167 196.25C174.333 203.417 180.167 212.417 184.5 223.25C188.833 234.083 191 246.75 191 261.25C191 275.417 188.833 287.917 184.5 298.75C180.167 309.583 174.333 318.667 167 326C159.667 333.333 151.333 338.917 142 342.75C132.667 346.417 122.917 348.25 112.75 348.25ZM112.75 340.75C122.25 340.75 129.917 338.333 135.75 333.5C141.583 328.5 145.833 320.167 148.5 308.5C151.167 296.833 152.5 281.083 152.5 261.25C152.5 241.417 151.167 225.75 148.5 214.25C145.833 202.583 141.583 194.333 135.75 189.5C129.917 184.5 122.25 182 112.75 182C103.417 182 95.75 184.5 89.75 189.5C83.9167 194.333 79.6667 202.583 77 214.25C74.3333 225.75 73 241.417 73 261.25C73 281.083 74.3333 296.833 77 308.5C79.6667 320.167 83.9167 328.5 89.75 333.5C95.75 338.333 103.417 340.75 112.75 340.75ZM255.236 348.25C246.07 348.25 236.736 347.083 227.236 344.75C217.903 342.583 210.07 339.667 203.736 336L205.236 301.25H212.486L220.236 318.5C222.57 323.333 224.986 327.333 227.486 330.5C229.986 333.667 233.32 336.083 237.486 337.75C240.32 338.917 242.986 339.75 245.486 340.25C248.153 340.583 251.07 340.75 254.236 340.75C264.403 340.75 272.403 338.167 278.236 333C284.236 327.667 287.236 320.667 287.236 312C287.236 304.167 285.153 298 280.986 293.5C276.986 289 270.486 284.667 261.486 280.5L251.236 276C237.236 269.833 226.153 262.667 217.986 254.5C209.986 246.333 205.986 235.5 205.986 222C205.986 212 208.486 203.5 213.486 196.5C218.653 189.333 225.736 183.833 234.736 180C243.736 176.167 254.236 174.25 266.236 174.25C275.07 174.25 283.32 175.417 290.986 177.75C298.82 180.083 305.653 183.25 311.486 187.25L309.736 218.25H302.486L293.236 199.5C290.57 194 287.986 190.083 285.486 187.75C283.153 185.25 280.236 183.667 276.736 183C274.736 182.667 272.986 182.417 271.486 182.25C270.153 182.083 268.32 182 265.986 182C257.82 182 250.736 184.417 244.736 189.25C238.903 193.917 235.986 200.417 235.986 208.75C235.986 216.75 238.236 223.25 242.736 228.25C247.236 233.25 253.736 237.667 262.236 241.5L273.486 246.25C289.653 253.25 301.236 260.75 308.236 268.75C315.236 276.583 318.736 286.667 318.736 299C318.736 313.667 313.153 325.583 301.986 334.75C290.986 343.75 275.403 348.25 255.236 348.25ZM321.277 344V338.75L328.027 336.75C331.527 335.75 334.194 334.25 336.027 332.25C338.027 330.25 339.611 327.5 340.777 324L391.277 178H412.027L462.277 325C463.611 328.667 465.111 331.5 466.777 333.5C468.444 335.333 471.111 336.833 474.777 338L478.527 339V344H415.027V339L419.277 337.75C422.944 336.583 425.111 334.75 425.777 332.25C426.611 329.75 426.444 326.667 425.277 323L414.777 290.75H359.527L348.777 322.5C347.611 326.167 347.277 329.167 347.777 331.5C348.277 333.833 350.361 335.667 354.027 337L359.527 338.75V344H321.277ZM362.027 283.5H412.527L388.027 208.25L362.027 283.5Z" fill="#76B39D"/>
</g>
<defs>
<filter id="filter0_i_227_64" x="34.25" y="174.25" width="444.277" height="178" filterUnits="userSpaceOnUse" color-interpolation-filters="sRGB">
<feFlood flood-opacity="0" result="BackgroundImageFix"/>
<feBlend mode="normal" in="SourceGraphic" in2="BackgroundImageFix" result="shape"/>
<feColorMatrix in="SourceAlpha" type="matrix" values="0 0 0 0 0 0 0 0 0 0 0 0 0 0 0 0 0 0 127 0" result="hardAlpha"/>
<feOffset dy="4"/>
<feGaussianBlur stdDeviation="2"/>
<feComposite in2="hardAlpha" operator="arithmetic" k2="-1" k3="1"/>
<feColorMatrix type="matrix" values="0 0 0 0 1 0 0 0 0 1 0 0 0 0 1 0 0 0 0.3 0"/>
<feBlend mode="normal" in2="shape" result="effect1_innerShadow_227_64"/>
</filter>
</defs>
</svg>
