<svg width="1134" height="650" viewBox="0 0 1134 650" fill="none" xmlns="http://www.w3.org/2000/svg">
<path d="M277.752 150.001C285.623 149.917 292.863 154.461 296.449 161.736C296.449 161.736 358.669 247.627 388.206 307.551C417.744 367.476 447.72 468.627 447.72 468.627C451.014 475.309 450.722 483.289 446.95 489.692C443.177 496.095 436.468 500 429.237 500H108.375C104.591 500 102.178 495.959 103.973 492.628L117.569 467.402C121.059 460.928 127.82 456.892 135.175 456.892H369.959C382.881 456.892 392.348 444.869 388.944 432.403C380.859 402.785 366.017 353.494 350.141 326.026C336.876 303.075 316.036 272.6 300.236 250.188C291.033 237.133 271.126 239.923 265.578 254.901C254.378 285.139 239.15 325.517 233.969 335.777C229.951 343.733 224.343 352.716 218.86 360.892C211.682 371.596 219.157 386.584 232.046 386.584C236.704 386.584 241.158 384.52 243.839 380.71C249.508 372.655 255.23 362.487 259.675 352.199C263.754 342.76 265.113 337.317 267.585 329.619C270.057 321.921 270.337 308.365 278.46 310.117C313.683 317.715 367.729 429.692 314.054 429.692C314.054 429.692 269.064 428.152 240.395 428.152C211.727 428.152 167.232 429.692 167.232 429.692C160.078 429.692 153.428 425.869 149.632 419.574C145.837 413.278 145.43 405.398 148.556 398.718C148.556 398.718 182.191 348.102 203.814 301.906C225.436 255.71 259.291 162.134 259.291 162.134C262.731 154.784 269.88 150.086 277.752 150.001Z" fill="#76B39D"/>
<path d="M575.25 230.55C569.15 230.55 563.3 229.45 557.7 227.25C552.1 225.05 547.05 221.8 542.55 217.5C538.15 213.1 534.65 207.65 532.05 201.15C529.45 194.65 528.15 187.05 528.15 178.35C528.15 169.85 529.45 162.35 532.05 155.85C534.65 149.35 538.15 143.9 542.55 139.5C547.05 135.1 552.1 131.8 557.7 129.6C563.4 127.3 569.25 126.15 575.25 126.15C581.25 126.15 587.05 127.25 592.65 129.45C598.35 131.65 603.4 134.95 607.8 139.35C612.2 143.65 615.7 149.05 618.3 155.55C620.9 162.05 622.2 169.65 622.2 178.35C622.2 186.85 620.9 194.35 618.3 200.85C615.7 207.35 612.2 212.8 607.8 217.2C603.4 221.6 598.4 224.95 592.8 227.25C587.2 229.45 581.35 230.55 575.25 230.55ZM575.25 226.05C580.95 226.05 585.55 224.6 589.05 221.7C592.55 218.7 595.1 213.7 596.7 206.7C598.3 199.7 599.1 190.25 599.1 178.35C599.1 166.45 598.3 157.05 596.7 150.15C595.1 143.15 592.55 138.2 589.05 135.3C585.55 132.3 580.95 130.8 575.25 130.8C569.65 130.8 565.05 132.3 561.45 135.3C557.95 138.2 555.4 143.15 553.8 150.15C552.2 157.05 551.4 166.45 551.4 178.35C551.4 190.25 552.2 199.7 553.8 206.7C555.4 213.7 557.95 218.7 561.45 221.7C565.05 224.6 569.65 226.05 575.25 226.05ZM628.492 262.65V259.8L630.442 259.2C632.442 258.7 633.842 257.85 634.642 256.65C635.442 255.55 635.842 253.95 635.842 251.85C635.842 247.75 635.842 243.85 635.842 240.15C635.942 236.55 635.992 233.05 635.992 229.65V188.4C635.992 185.3 635.992 182.65 635.992 180.45C635.992 178.15 635.942 175.6 635.842 172.8C635.842 170.7 635.492 169.1 634.792 168C634.092 166.8 632.742 166 630.742 165.6L628.492 165.15V162.45L652.642 153.75L654.442 155.25L655.792 160.8C662.692 156.1 670.492 153.75 679.192 153.75C687.692 153.75 694.492 156.95 699.592 163.35C704.792 169.75 707.392 179.2 707.392 191.7C707.392 203.8 704.542 213.25 698.842 220.05C693.242 226.75 685.592 230.1 675.892 230.1C671.992 230.1 668.292 229.75 664.792 229.05C661.392 228.35 658.342 227.3 655.642 225.9V230.4C655.642 233.4 655.642 236.65 655.642 240.15C655.742 243.65 655.792 247.45 655.792 251.55C655.792 255.55 657.542 258.05 661.042 259.05L663.892 259.8V262.65H628.492ZM668.842 224.1C674.142 224.1 678.292 221.75 681.292 217.05C684.392 212.25 685.942 204 685.942 192.3C685.942 180.7 684.492 172.6 681.592 168C678.692 163.3 674.592 160.95 669.292 160.95C667.392 160.95 665.342 161.25 663.142 161.85C660.942 162.45 658.592 163.45 656.092 164.85V221.55C660.092 223.25 664.342 224.1 668.842 224.1ZM752.564 153.75C758.864 153.75 764.264 155.05 768.764 157.65C773.264 160.25 776.714 163.85 779.114 168.45C781.614 172.95 782.864 178.15 782.864 184.05C782.864 185.35 782.814 186.6 782.714 187.8C782.614 188.9 782.414 189.95 782.114 190.95H736.964C737.064 201.25 738.964 208.65 742.664 213.15C746.464 217.65 751.964 219.9 759.164 219.9C764.164 219.9 768.214 219.1 771.314 217.5C774.414 215.8 777.264 213.45 779.864 210.45L782.264 212.7C779.264 218.2 775.164 222.5 769.964 225.6C764.864 228.6 758.764 230.1 751.664 230.1C744.564 230.1 738.314 228.6 732.914 225.6C727.514 222.6 723.264 218.3 720.164 212.7C717.164 207 715.664 200.2 715.664 192.3C715.664 184.1 717.414 177.15 720.914 171.45C724.514 165.75 729.114 161.4 734.714 158.4C740.414 155.3 746.364 153.75 752.564 153.75ZM751.814 158.1C748.914 158.1 746.364 158.95 744.164 160.65C742.064 162.25 740.364 165.15 739.064 169.35C737.864 173.45 737.164 179.25 736.964 186.75H763.814C764.914 176.65 764.514 169.35 762.614 164.85C760.714 160.35 757.114 158.1 751.814 158.1ZM790.504 228V225.15L792.904 224.55C796.204 223.55 797.854 221.1 797.854 217.2V172.95C797.754 170.85 797.404 169.25 796.804 168.15C796.204 166.95 794.904 166.15 792.904 165.75L790.504 165.15V162.45L814.804 153.75L816.604 155.4L817.654 164.7C821.254 161.5 825.254 158.9 829.654 156.9C834.154 154.8 838.554 153.75 842.854 153.75C849.454 153.75 854.504 155.55 858.004 159.15C861.604 162.75 863.404 168.25 863.404 175.65V217.35C863.404 221.25 865.204 223.7 868.804 224.7L870.454 225.15V228H835.954V225.15L838.204 224.55C841.504 223.45 843.154 221 843.154 217.2V172.65C843.154 169.15 842.404 166.6 840.904 165C839.404 163.4 836.904 162.6 833.404 162.6C828.504 162.6 823.404 164.75 818.104 169.05V217.35C818.104 221.25 819.854 223.7 823.354 224.7L824.854 225.15V228H790.504ZM526.05 528V524.85L530.1 523.65C532.2 523.05 533.8 522.15 534.9 520.95C536.1 519.75 537.05 518.1 537.75 516L568.05 428.4H580.5L610.65 516.6C611.45 518.8 612.35 520.5 613.35 521.7C614.35 522.8 615.95 523.7 618.15 524.4L620.4 525V528H582.3V525L584.85 524.25C587.05 523.55 588.35 522.45 588.75 520.95C589.25 519.45 589.15 517.6 588.45 515.4L582.15 496.05H549L542.55 515.1C541.85 517.3 541.65 519.1 541.95 520.5C542.25 521.9 543.5 523 545.7 523.8L549 524.85V528H526.05ZM550.5 491.7H580.8L566.1 446.55L550.5 491.7ZM625.562 528V525.15L627.812 524.4C629.812 523.9 631.162 523.05 631.862 521.85C632.662 520.65 633.062 519.05 633.062 517.05V473.1C632.962 470.9 632.562 469.25 631.862 468.15C631.162 466.95 629.812 466.15 627.812 465.75L625.562 465.15V462.45L650.012 453.75L651.812 455.4L653.162 468.6V469.65C654.662 466.85 656.562 464.25 658.862 461.85C661.162 459.45 663.662 457.5 666.362 456C669.062 454.5 671.762 453.75 674.462 453.75C678.262 453.75 681.112 454.75 683.012 456.75C684.912 458.75 685.862 461.3 685.862 464.4C685.862 467.8 684.912 470.4 683.012 472.2C681.112 473.9 678.812 474.75 676.112 474.75C672.112 474.75 668.662 472.95 665.762 469.35L665.462 469.05C664.462 467.85 663.312 467.2 662.012 467.1C660.812 466.9 659.612 467.5 658.412 468.9C657.412 469.9 656.462 471.1 655.562 472.5C654.762 473.8 654.012 475.35 653.312 477.15V516.45C653.312 518.35 653.712 519.95 654.512 521.25C655.312 522.45 656.662 523.3 658.562 523.8L663.062 525.15V528H625.562ZM725.3 530.1C718.5 530.1 712.35 528.65 706.85 525.75C701.35 522.75 697 518.45 693.8 512.85C690.7 507.15 689.15 500.25 689.15 492.15C689.15 484.05 690.9 477.15 694.4 471.45C697.9 465.75 702.55 461.4 708.35 458.4C714.25 455.3 720.7 453.75 727.7 453.75C733.4 453.75 738.25 454.7 742.25 456.6C746.25 458.5 749.3 460.95 751.4 463.95C753.5 466.85 754.55 469.95 754.55 473.25C754.55 476.05 753.7 478.2 752 479.7C750.4 481.2 748.3 481.95 745.7 481.95C742.9 481.95 740.6 480.95 738.8 478.95C737.1 476.95 736.1 474.4 735.8 471.3C735.7 469.3 735.7 467.6 735.8 466.2C736 464.8 736 463.45 735.8 462.15C735.4 460.45 734.7 459.3 733.7 458.7C732.8 458.1 731.5 457.8 729.8 457.8C723.5 457.8 718.65 460.35 715.25 465.45C711.95 470.45 710.3 478.6 710.3 489.9C710.3 499.6 712.15 507.05 715.85 512.25C719.55 517.45 725.3 520.05 733.1 520.05C737.7 520.05 741.5 519.2 744.5 517.5C747.5 515.7 750.25 513.15 752.75 509.85L755.15 511.65C752.65 517.65 748.8 522.25 743.6 525.45C738.5 528.55 732.4 530.1 725.3 530.1ZM759.602 528V525L761.552 524.4C765.152 523.3 766.952 520.8 766.952 516.9V439.65C766.952 437.55 766.602 436 765.902 435C765.202 433.9 763.852 433.1 761.852 432.6L759.602 432V429.15L784.952 422.7L787.352 424.05L786.752 445.2V464.4C790.252 461.5 794.052 459 798.152 456.9C802.352 454.8 806.852 453.75 811.652 453.75C818.252 453.75 823.402 455.6 827.102 459.3C830.902 463 832.802 468.7 832.802 476.4V517.05C832.802 519.05 833.202 520.65 834.002 521.85C834.802 523.05 836.202 523.95 838.202 524.55L839.552 525V528H805.352V525L807.152 524.4C810.752 523.4 812.552 520.9 812.552 516.9V473.55C812.552 469.45 811.852 466.6 810.452 465C809.052 463.4 806.602 462.6 803.102 462.6C800.702 462.6 798.152 463.05 795.452 463.95C792.852 464.85 790.102 466.35 787.202 468.45V517.2C787.202 519.2 787.602 520.8 788.402 522C789.202 523.2 790.552 524.05 792.452 524.55L793.802 525V528H759.602ZM862.982 445.5C859.682 445.5 856.882 444.45 854.582 442.35C852.282 440.25 851.132 437.6 851.132 434.4C851.132 431.1 852.282 428.45 854.582 426.45C856.882 424.35 859.682 423.3 862.982 423.3C866.282 423.3 869.082 424.35 871.382 426.45C873.682 428.45 874.832 431.1 874.832 434.4C874.832 437.6 873.682 440.25 871.382 442.35C869.082 444.45 866.282 445.5 862.982 445.5ZM845.732 528V525.15L847.982 524.55C849.982 523.95 851.332 523.05 852.032 521.85C852.732 520.65 853.132 519.05 853.232 517.05V489.45C853.232 486.35 853.232 483.5 853.232 480.9C853.232 478.2 853.182 475.45 853.082 472.65C853.082 470.65 852.682 469.1 851.882 468C851.182 466.8 849.832 466 847.832 465.6L845.732 465.15V462.45L871.982 453.75L873.782 455.4L873.332 476.7V517.2C873.332 519.2 873.682 520.8 874.382 522C875.182 523.2 876.532 524.1 878.432 524.7L880.082 525.15V528H845.732ZM918.429 528.45L892.029 465C890.929 462.2 888.979 460.4 886.179 459.6L883.029 458.85V456H920.979V458.85L917.079 459.75C913.879 460.55 912.929 462.6 914.229 465.9L929.979 507.75L944.679 466.2C945.179 464.5 945.279 463.15 944.979 462.15C944.779 461.05 943.829 460.3 942.129 459.9L937.779 458.85V456H960.579V458.85L955.629 460.05C952.729 460.75 950.779 462.55 949.779 465.45L927.129 528.45H918.429ZM998.218 453.75C1004.52 453.75 1009.92 455.05 1014.42 457.65C1018.92 460.25 1022.37 463.85 1024.77 468.45C1027.27 472.95 1028.52 478.15 1028.52 484.05C1028.52 485.35 1028.47 486.6 1028.37 487.8C1028.27 488.9 1028.07 489.95 1027.77 490.95H982.618C982.718 501.25 984.618 508.65 988.318 513.15C992.118 517.65 997.618 519.9 1004.82 519.9C1009.82 519.9 1013.87 519.1 1016.97 517.5C1020.07 515.8 1022.92 513.45 1025.52 510.45L1027.92 512.7C1024.92 518.2 1020.82 522.5 1015.62 525.6C1010.52 528.6 1004.42 530.1 997.318 530.1C990.218 530.1 983.968 528.6 978.568 525.6C973.168 522.6 968.918 518.3 965.818 512.7C962.818 507 961.318 500.2 961.318 492.3C961.318 484.1 963.068 477.15 966.568 471.45C970.168 465.75 974.768 461.4 980.368 458.4C986.068 455.3 992.018 453.75 998.218 453.75ZM997.468 458.1C994.568 458.1 992.018 458.95 989.818 460.65C987.718 462.25 986.018 465.15 984.718 469.35C983.518 473.45 982.818 479.25 982.618 486.75H1009.47C1010.57 476.65 1010.17 469.35 1008.27 464.85C1006.37 460.35 1002.77 458.1 997.468 458.1Z" fill="black"/>
<path d="M560.4 380.55C554.9 380.55 549.3 379.85 543.6 378.45C538 377.15 533.3 375.4 529.5 373.2L530.4 352.35H534.75L539.4 362.7C540.8 365.6 542.25 368 543.75 369.9C545.25 371.8 547.25 373.25 549.75 374.25C551.45 374.95 553.05 375.45 554.55 375.75C556.15 375.95 557.9 376.05 559.8 376.05C565.9 376.05 570.7 374.5 574.2 371.4C577.8 368.2 579.6 364 579.6 358.8C579.6 354.1 578.35 350.4 575.85 347.7C573.45 345 569.55 342.4 564.15 339.9L558 337.2C549.6 333.5 542.95 329.2 538.05 324.3C533.25 319.4 530.85 312.9 530.85 304.8C530.85 298.8 532.35 293.7 535.35 289.5C538.45 285.2 542.7 281.9 548.1 279.6C553.5 277.3 559.8 276.15 567 276.15C572.3 276.15 577.25 276.85 581.85 278.25C586.55 279.65 590.65 281.55 594.15 283.95L593.1 302.55H588.75L583.2 291.3C581.6 288 580.05 285.65 578.55 284.25C577.15 282.75 575.4 281.8 573.3 281.4C572.1 281.2 571.05 281.05 570.15 280.95C569.35 280.85 568.25 280.8 566.85 280.8C561.95 280.8 557.7 282.25 554.1 285.15C550.6 287.95 548.85 291.85 548.85 296.85C548.85 301.65 550.2 305.55 552.9 308.55C555.6 311.55 559.5 314.2 564.6 316.5L571.35 319.35C581.05 323.55 588 328.05 592.2 332.85C596.4 337.55 598.5 343.6 598.5 351C598.5 359.8 595.15 366.95 588.45 372.45C581.85 377.85 572.5 380.55 560.4 380.55ZM642.683 380.1C635.883 380.1 629.733 378.65 624.233 375.75C618.733 372.75 614.383 368.45 611.183 362.85C608.083 357.15 606.533 350.25 606.533 342.15C606.533 334.05 608.283 327.15 611.783 321.45C615.283 315.75 619.933 311.4 625.733 308.4C631.633 305.3 638.083 303.75 645.083 303.75C650.783 303.75 655.633 304.7 659.633 306.6C663.633 308.5 666.683 310.95 668.783 313.95C670.883 316.85 671.933 319.95 671.933 323.25C671.933 326.05 671.083 328.2 669.383 329.7C667.783 331.2 665.683 331.95 663.083 331.95C660.283 331.95 657.983 330.95 656.183 328.95C654.483 326.95 653.483 324.4 653.183 321.3C653.083 319.3 653.083 317.6 653.183 316.2C653.383 314.8 653.383 313.45 653.183 312.15C652.783 310.45 652.083 309.3 651.083 308.7C650.183 308.1 648.883 307.8 647.183 307.8C640.883 307.8 636.033 310.35 632.633 315.45C629.333 320.45 627.683 328.6 627.683 339.9C627.683 349.6 629.533 357.05 633.233 362.25C636.933 367.45 642.683 370.05 650.483 370.05C655.083 370.05 658.883 369.2 661.883 367.5C664.883 365.7 667.633 363.15 670.133 359.85L672.533 361.65C670.033 367.65 666.183 372.25 660.983 375.45C655.883 378.55 649.783 380.1 642.683 380.1ZM697.015 295.5C693.715 295.5 690.915 294.45 688.615 292.35C686.315 290.25 685.165 287.6 685.165 284.4C685.165 281.1 686.315 278.45 688.615 276.45C690.915 274.35 693.715 273.3 697.015 273.3C700.315 273.3 703.115 274.35 705.415 276.45C707.715 278.45 708.865 281.1 708.865 284.4C708.865 287.6 707.715 290.25 705.415 292.35C703.115 294.45 700.315 295.5 697.015 295.5ZM679.765 378V375.15L682.015 374.55C684.015 373.95 685.365 373.05 686.065 371.85C686.765 370.65 687.165 369.05 687.265 367.05V339.45C687.265 336.35 687.265 333.5 687.265 330.9C687.265 328.2 687.215 325.45 687.115 322.65C687.115 320.65 686.715 319.1 685.915 318C685.215 316.8 683.865 316 681.865 315.6L679.765 315.15V312.45L706.015 303.75L707.815 305.4L707.365 326.7V367.2C707.365 369.2 707.715 370.8 708.415 372C709.215 373.2 710.565 374.1 712.465 374.7L714.115 375.15V378H679.765ZM758.277 303.75C764.577 303.75 769.977 305.05 774.477 307.65C778.977 310.25 782.427 313.85 784.827 318.45C787.327 322.95 788.577 328.15 788.577 334.05C788.577 335.35 788.527 336.6 788.427 337.8C788.327 338.9 788.127 339.95 787.827 340.95H742.677C742.777 351.25 744.677 358.65 748.377 363.15C752.177 367.65 757.677 369.9 764.877 369.9C769.877 369.9 773.927 369.1 777.027 367.5C780.127 365.8 782.977 363.45 785.577 360.45L787.977 362.7C784.977 368.2 780.877 372.5 775.677 375.6C770.577 378.6 764.477 380.1 757.377 380.1C750.277 380.1 744.027 378.6 738.627 375.6C733.227 372.6 728.977 368.3 725.877 362.7C722.877 357 721.377 350.2 721.377 342.3C721.377 334.1 723.127 327.15 726.627 321.45C730.227 315.75 734.827 311.4 740.427 308.4C746.127 305.3 752.077 303.75 758.277 303.75ZM757.527 308.1C754.627 308.1 752.077 308.95 749.877 310.65C747.777 312.25 746.077 315.15 744.777 319.35C743.577 323.45 742.877 329.25 742.677 336.75H769.527C770.627 326.65 770.227 319.35 768.327 314.85C766.427 310.35 762.827 308.1 757.527 308.1ZM796.216 378V375.15L798.616 374.55C801.916 373.55 803.566 371.1 803.566 367.2V322.95C803.466 320.85 803.116 319.25 802.516 318.15C801.916 316.95 800.616 316.15 798.616 315.75L796.216 315.15V312.45L820.516 303.75L822.316 305.4L823.366 314.7C826.966 311.5 830.966 308.9 835.366 306.9C839.866 304.8 844.266 303.75 848.566 303.75C855.166 303.75 860.216 305.55 863.716 309.15C867.316 312.75 869.116 318.25 869.116 325.65V367.35C869.116 371.25 870.916 373.7 874.516 374.7L876.166 375.15V378H841.666V375.15L843.916 374.55C847.216 373.45 848.866 371 848.866 367.2V322.65C848.866 319.15 848.116 316.6 846.616 315C845.116 313.4 842.616 312.6 839.116 312.6C834.216 312.6 829.116 314.75 823.816 319.05V367.35C823.816 371.25 825.566 373.7 829.066 374.7L830.566 375.15V378H796.216ZM919.099 380.1C912.299 380.1 906.149 378.65 900.649 375.75C895.149 372.75 890.799 368.45 887.599 362.85C884.499 357.15 882.949 350.25 882.949 342.15C882.949 334.05 884.699 327.15 888.199 321.45C891.699 315.75 896.349 311.4 902.149 308.4C908.049 305.3 914.499 303.75 921.499 303.75C927.199 303.75 932.049 304.7 936.049 306.6C940.049 308.5 943.099 310.95 945.199 313.95C947.299 316.85 948.349 319.95 948.349 323.25C948.349 326.05 947.499 328.2 945.799 329.7C944.199 331.2 942.099 331.95 939.499 331.95C936.699 331.95 934.399 330.95 932.599 328.95C930.899 326.95 929.899 324.4 929.599 321.3C929.499 319.3 929.499 317.6 929.599 316.2C929.799 314.8 929.799 313.45 929.599 312.15C929.199 310.45 928.499 309.3 927.499 308.7C926.599 308.1 925.299 307.8 923.599 307.8C917.299 307.8 912.449 310.35 909.049 315.45C905.749 320.45 904.099 328.6 904.099 339.9C904.099 349.6 905.949 357.05 909.649 362.25C913.349 367.45 919.099 370.05 926.899 370.05C931.499 370.05 935.299 369.2 938.299 367.5C941.299 365.7 944.049 363.15 946.549 359.85L948.949 361.65C946.449 367.65 942.599 372.25 937.399 375.45C932.299 378.55 926.199 380.1 919.099 380.1ZM992.798 303.75C999.098 303.75 1004.5 305.05 1009 307.65C1013.5 310.25 1016.95 313.85 1019.35 318.45C1021.85 322.95 1023.1 328.15 1023.1 334.05C1023.1 335.35 1023.05 336.6 1022.95 337.8C1022.85 338.9 1022.65 339.95 1022.35 340.95H977.198C977.298 351.25 979.198 358.65 982.898 363.15C986.698 367.65 992.198 369.9 999.398 369.9C1004.4 369.9 1008.45 369.1 1011.55 367.5C1014.65 365.8 1017.5 363.45 1020.1 360.45L1022.5 362.7C1019.5 368.2 1015.4 372.5 1010.2 375.6C1005.1 378.6 998.998 380.1 991.898 380.1C984.798 380.1 978.548 378.6 973.148 375.6C967.748 372.6 963.498 368.3 960.398 362.7C957.398 357 955.898 350.2 955.898 342.3C955.898 334.1 957.648 327.15 961.148 321.45C964.748 315.75 969.348 311.4 974.948 308.4C980.648 305.3 986.598 303.75 992.798 303.75ZM992.048 308.1C989.148 308.1 986.598 308.95 984.398 310.65C982.298 312.25 980.598 315.15 979.298 319.35C978.098 323.45 977.398 329.25 977.198 336.75H1004.05C1005.15 326.65 1004.75 319.35 1002.85 314.85C1000.95 310.35 997.348 308.1 992.048 308.1Z" fill="#76B39D"/>
</svg>
